<?xml version="1.0" encoding="utf-8"?>
<!-- Generator: Adobe Illustrator 17.0.0, SVG Export Plug-In . SVG Version: 6.00 Build 0)  -->
<!DOCTYPE svg PUBLIC "-//W3C//DTD SVG 1.1//EN" "http://www.w3.org/Graphics/SVG/1.1/DTD/svg11.dtd">
<svg version="1.1" id="图层_1" xmlns="http://www.w3.org/2000/svg" xmlns:xlink="http://www.w3.org/1999/xlink" x="0px" y="0px"
	 width="43.295px" height="43.295px" viewBox="0 0 43.295 43.295" enable-background="new 0 0 43.295 43.295" xml:space="preserve">
<circle fill="#087B72" cx="21.648" cy="21.648" r="21.648"/>
<g>
	
		<line fill="none" stroke="#FFFFFF" stroke-width="2" stroke-linecap="round" stroke-linejoin="round" stroke-miterlimit="10" x1="14.282" y1="26.273" x2="29.013" y2="26.273"/>
	<path fill="none" stroke="#FFFFFF" stroke-width="2" stroke-linecap="round" stroke-linejoin="round" stroke-miterlimit="10" d="
		M23.57,18.955c1.22-0.562,2.047-1.64,2.047-2.879c0-1.818-1.777-3.292-3.969-3.292c-2.192,0-3.969,1.474-3.969,3.292
		c0,1.24,0.827,2.318,2.047,2.879c-0.493,6.54-5.444,7.318-5.444,7.318v3.157c0,0.598,0.485,1.082,1.082,1.082h6.283h6.283
		c0.598,0,1.082-0.485,1.082-1.082v-3.157C29.013,26.273,24.062,25.495,23.57,18.955z"/>
</g>
</svg>
