<?xml version="1.0" encoding="utf-8"?>
<!-- Generator: Adobe Illustrator 17.0.0, SVG Export Plug-In . SVG Version: 6.00 Build 0)  -->
<!DOCTYPE svg PUBLIC "-//W3C//DTD SVG 1.1//EN" "http://www.w3.org/Graphics/SVG/1.1/DTD/svg11.dtd">
<svg version="1.1" id="图层_1" xmlns="http://www.w3.org/2000/svg" xmlns:xlink="http://www.w3.org/1999/xlink" x="0px" y="0px"
	 width="43.295px" height="43.295px" viewBox="0 0 43.295 43.295" enable-background="new 0 0 43.295 43.295" xml:space="preserve">
<circle fill="#177F4B" cx="21.648" cy="21.648" r="21.648"/>
<g>
	<path fill="none" stroke="#FFFFFF" stroke-width="2" stroke-miterlimit="10" d="M12.783,26.714v-7.421
		c0-3.025,3.939-5.478,8.799-5.478h0.131c4.86,0,8.799,2.453,8.799,5.478v7.421"/>
	<path fill="#FFFFFF" d="M17.149,27.883c0,0.882-0.715,1.598-1.598,1.598l0,0c-0.882,0-1.598-0.715-1.598-1.598v-2.34
		c0-0.882,0.715-1.598,1.598-1.598l0,0c0.882,0,1.598,0.715,1.598,1.598V27.883z"/>
	<path fill="#FFFFFF" d="M29.246,27.883c0,0.882-0.715,1.598-1.598,1.598l0,0c-0.882,0-1.598-0.715-1.598-1.598v-2.34
		c0-0.882,0.715-1.598,1.598-1.598l0,0c0.882,0,1.598,0.715,1.598,1.598V27.883z"/>
</g>
</svg>
