<?xml version="1.0" encoding="utf-8"?>
<!-- Generator: Adobe Illustrator 17.0.0, SVG Export Plug-In . SVG Version: 6.00 Build 0)  -->
<!DOCTYPE svg PUBLIC "-//W3C//DTD SVG 1.1//EN" "http://www.w3.org/Graphics/SVG/1.1/DTD/svg11.dtd">
<svg version="1.1" id="图层_1" xmlns="http://www.w3.org/2000/svg" xmlns:xlink="http://www.w3.org/1999/xlink" x="0px" y="0px"
	 width="43.295px" height="43.295px" viewBox="0 0 43.295 43.295" enable-background="new 0 0 43.295 43.295" xml:space="preserve">
<circle fill="#1087B5" cx="21.648" cy="21.648" r="21.648"/>
<g>
	<path fill="none" stroke="#FFFFFF" stroke-width="2" stroke-linecap="round" stroke-linejoin="round" stroke-miterlimit="10" d="
		M16.061,24.124c0,0.637-0.517,1.154-1.154,1.154h-0.97c-0.637,0-1.154-0.517-1.154-1.154v-4.952c0-0.637,0.517-1.154,1.154-1.154
		h0.97c0.637,0,1.154,0.517,1.154,1.154V24.124z"/>
	<path fill="none" stroke="#FFFFFF" stroke-width="2" stroke-linecap="round" stroke-linejoin="round" stroke-miterlimit="10" d="
		M22.703,27.357c0,0.637-0.747,0.911-1.598,0.634l-3.131-1.499c-0.461-0.15-0.815-0.61-0.815-1.035v-7.62
		c0-0.425,0.353-0.885,0.815-1.035l3.131-1.499c0.852-0.277,1.598-0.003,1.598,0.634V27.357z"/>
	<path fill="none" stroke="#FFFFFF" stroke-width="2" stroke-linecap="round" stroke-linejoin="round" stroke-miterlimit="10" d="
		M25.966,17.821c0.892,0,1.615,1.716,1.615,3.832s-0.723,3.832-1.615,3.832"/>
	<path fill="none" stroke="#FFFFFF" stroke-width="2" stroke-linecap="round" stroke-linejoin="round" stroke-miterlimit="10" d="
		M27.93,15.616c1.426,0,2.582,2.744,2.582,6.128s-1.156,6.128-2.582,6.128"/>
</g>
</svg>
